<svg width="13" height="13" viewBox="0 0 13 13" fill="none" xmlns="http://www.w3.org/2000/svg">
<g clip-path="url(#clip0_1025_103)">
<path d="M8.57524 5.95671C8.45021 5.95671 8.328 5.99378 8.22405 6.06324C8.12009 6.1327 8.03907 6.23143 7.99123 6.34693C7.94339 6.46244 7.93087 6.58954 7.95526 6.71216C7.97965 6.83478 8.03985 6.94741 8.12826 7.03582C8.21666 7.12422 8.3293 7.18442 8.45192 7.20882C8.57454 7.23321 8.70164 7.22069 8.81714 7.17284C8.93265 7.125 9.03137 7.04398 9.10083 6.94003C9.17029 6.83607 9.20736 6.71386 9.20736 6.58884C9.20736 6.42119 9.14076 6.2604 9.02222 6.14186C8.90367 6.02331 8.74289 5.95671 8.57524 5.95671ZM5.0544 6.58884C5.0544 6.46379 5.01732 6.34155 4.94783 6.23759C4.87835 6.13363 4.77959 6.05261 4.66406 6.00478C4.54852 5.95695 4.42139 5.94446 4.29876 5.9689C4.17612 5.99333 4.06349 6.05359 3.97511 6.14205C3.88672 6.23051 3.82656 6.34319 3.80223 6.46585C3.7779 6.5885 3.7905 6.71562 3.83843 6.83112C3.88635 6.94661 3.96746 7.0453 4.07148 7.11469C4.17551 7.18409 4.29777 7.22107 4.42282 7.22096C4.59038 7.22082 4.75102 7.15416 4.86945 7.03562C4.98788 6.91709 5.0544 6.75639 5.0544 6.58884ZM7.85103 8.34384C7.67866 8.5292 7.46999 8.67711 7.23801 8.77837C7.00602 8.87963 6.75568 8.93207 6.50256 8.93242C6.24944 8.93278 5.99895 8.88105 5.76668 8.78044C5.53442 8.67983 5.32533 8.53251 5.15245 8.34763C5.06223 8.23579 4.93128 8.16437 4.7884 8.14908C4.64553 8.13379 4.50243 8.17589 4.39059 8.26611C4.27875 8.35632 4.20733 8.48727 4.19205 8.63015C4.17676 8.77303 4.21885 8.91612 4.30907 9.02796C4.58339 9.33853 4.92061 9.58724 5.29835 9.75758C5.67609 9.92792 6.08574 10.016 6.50011 10.016C6.91449 10.016 7.32413 9.92792 7.70187 9.75758C8.07962 9.58724 8.41683 9.33853 8.69115 9.02796C8.7778 8.91622 8.81732 8.77504 8.80127 8.63456C8.78522 8.49408 8.71488 8.36544 8.60526 8.27612C8.49565 8.1868 8.35546 8.14389 8.21463 8.15654C8.0738 8.16919 7.94351 8.23641 7.85157 8.34384H7.85103ZM6.50065 0.272461C5.26864 0.272461 4.0643 0.637795 3.03991 1.32226C2.01553 2.00673 1.21713 2.9796 0.745654 4.11783C0.274183 5.25606 0.150825 6.50854 0.391179 7.71688C0.631533 8.92522 1.2248 10.0351 2.09597 10.9063C2.96713 11.7775 4.07706 12.3707 5.2854 12.6111C6.49374 12.8515 7.74622 12.7281 8.88445 12.2566C10.0227 11.7852 10.9955 10.9867 11.68 9.96237C12.3645 8.93799 12.7298 7.73364 12.7298 6.50163C12.728 4.85012 12.0711 3.26679 10.9033 2.099C9.73549 0.931209 8.15216 0.274325 6.50065 0.272461ZM6.50065 11.6475C5.4829 11.6475 4.48801 11.3457 3.64178 10.7802C2.79555 10.2148 2.136 9.41113 1.74652 8.47085C1.35705 7.53057 1.25514 6.49592 1.4537 5.49773C1.65225 4.49953 2.14234 3.58263 2.862 2.86297C3.58166 2.14332 4.49856 1.65322 5.49675 1.45467C6.49495 1.25612 7.5296 1.35802 8.46988 1.7475C9.41016 2.13697 10.2138 2.79653 10.7793 3.64276C11.3447 4.48898 11.6465 5.48388 11.6465 6.50163C11.6451 7.86595 11.1024 9.17398 10.1377 10.1387C9.173 11.1034 7.86497 11.646 6.50065 11.6475Z" fill="black"/>
</g>
<defs>
<clipPath id="clip0_1025_103">
<rect width="13" height="13" fill="white"/>
</clipPath>
</defs>
</svg>
