<svg width="100" height="100" viewBox="0 0 100 100" fill="none" xmlns="http://www.w3.org/2000/svg">
<path opacity="0.083" d="M69.4023 10.3948L59.9023 26.8493C59.0739 28.2842 59.5655 30.119 61.0004 30.9474C62.4353 31.7758 64.2701 31.2842 65.0985 29.8493L74.5985 13.3948C75.4269 11.96 74.9353 10.1252 73.5004 9.29675C72.0655 8.46833 70.2308 8.95995 69.4023 10.3948Z" fill="black"/>
<path opacity="0.167" d="M86.6053 25.402L70.1508 34.902C68.7159 35.7304 68.2243 37.5652 69.0527 39.0001C69.8812 40.4349 71.7159 40.9266 73.1508 40.0981L89.6053 30.5981C91.0402 29.7697 91.5318 27.9349 90.7034 26.5001C89.8749 25.0652 88.0402 24.5736 86.6053 25.402Z" fill="black"/>
<path opacity="0.25" d="M94 47H75C73.3431 47 72 48.3431 72 50C72 51.6569 73.3431 53 75 53H94C95.6569 53 97 51.6569 97 50C97 48.3431 95.6569 47 94 47Z" fill="black"/>
<path opacity="0.333" d="M89.6053 69.402L73.1508 59.902C71.7159 59.0736 69.8812 59.5652 69.0527 61.0001C68.2243 62.4349 68.7159 64.2697 70.1508 65.0981L86.6053 74.5981C88.0402 75.4266 89.8749 74.9349 90.7034 73.5001C91.5318 72.0652 91.0402 70.2304 89.6053 69.402Z" fill="black"/>
<path opacity="0.417" d="M74.5977 86.6052L65.0977 70.1507C64.2692 68.7158 62.4345 68.2242 60.9996 69.0526C59.5647 69.881 59.0731 71.7158 59.9015 73.1507L69.4015 89.6052C70.2299 91.04 72.0647 91.5317 73.4996 90.7032C74.9345 89.8748 75.4261 88.04 74.5977 86.6052Z" fill="black"/>
<path opacity="0.5" d="M53 94V75C53 73.3431 51.6569 72 50 72C48.3431 72 47 73.3431 47 75V94C47 95.6569 48.3431 97 50 97C51.6569 97 53 95.6569 53 94Z" fill="black"/>
<path opacity="0.583" d="M30.5977 89.6052L40.0977 73.1507C40.9261 71.7158 40.4345 69.881 38.9996 69.0526C37.5647 68.2242 35.7299 68.7158 34.9015 70.1507L25.4015 86.6052C24.5731 88.04 25.0647 89.8748 26.4996 90.7032C27.9345 91.5317 29.7692 91.04 30.5977 89.6052Z" fill="black"/>
<path opacity="0.667" d="M13.3947 74.598L29.8492 65.098C31.2841 64.2696 31.7757 62.4348 30.9473 60.9999C30.1188 59.5651 28.2841 59.0734 26.8492 59.9019L10.3947 69.4019C8.95983 70.2303 8.4682 72.0651 9.29663 73.4999C10.1251 74.9348 11.9598 75.4264 13.3947 74.598Z" fill="black"/>
<path opacity="0.75" d="M6 53H25C26.6569 53 28 51.6569 28 50C28 48.3431 26.6569 47 25 47H6C4.34315 47 3 48.3431 3 50C3 51.6569 4.34315 53 6 53Z" fill="black"/>
<path opacity="0.833" d="M10.3947 30.598L26.8492 40.098C28.2841 40.9264 30.1188 40.4348 30.9473 38.9999C31.7757 37.5651 31.2841 35.7303 29.8492 34.9019L13.3947 25.4019C11.9598 24.5734 10.1251 25.0651 9.29663 26.4999C8.4682 27.9348 8.95983 29.7696 10.3947 30.598Z" fill="black"/>
<path opacity="0.917" d="M25.4023 13.3948L34.9023 29.8493C35.7308 31.2842 37.5655 31.7758 39.0004 30.9474C40.4353 30.119 40.9269 28.2842 40.0985 26.8493L30.5985 10.3948C29.7701 8.95995 27.9353 8.46833 26.5004 9.29675C25.0655 10.1252 24.5739 11.96 25.4023 13.3948Z" fill="black"/>
</svg>
