<svg width="111" height="37" viewBox="0 0 111 37" fill="none" xmlns="http://www.w3.org/2000/svg">
<mask id="mask0_1028_50" style="mask-type:luminance" maskUnits="userSpaceOnUse" x="4" y="0" width="103" height="29">
<path d="M107 0H4V29H107V0Z" fill="white"/>
</mask>
<g mask="url(#mask0_1028_50)">
<g filter="url(#filter0_d_1028_50)">
<path fill-rule="evenodd" clip-rule="evenodd" d="M9.57165 0.0997052C7.46915 0.978768 5.16727 3.45283 4.44227 6.56127C3.5179 10.4944 7.35134 12.1528 7.66852 11.6091C8.03102 10.9747 6.97977 10.7572 6.76227 8.70908C6.4904 6.08095 7.71384 3.12658 9.25446 1.83971C9.54446 1.59502 9.52634 1.93033 9.52634 2.54658L9.47196 15.651C9.47196 18.4603 9.35415 19.3394 9.14571 20.2185C8.93727 21.1066 8.60196 21.7047 8.84665 21.9403C9.13665 22.1941 10.3691 21.5778 11.076 20.581C11.8837 19.349 12.3035 17.9033 12.2813 16.4303C12.3448 14.5635 12.3357 11.6 12.3448 9.91439C12.3448 8.37377 12.372 3.83346 12.3176 1.10564C12.2995 0.435018 10.4416 -0.262795 9.57165 0.108768V0.0997052ZM84.002 13.2222C83.973 14.3979 83.7015 15.5549 83.2045 16.6206C82.4341 18.1794 80.821 18.6597 80.1323 16.4213C79.7698 15.2069 79.7426 13.1678 80.0145 11.4641C80.2863 9.7422 81.0476 8.42814 82.3073 8.54596C83.5579 8.66377 84.1379 10.2678 84.002 13.2222ZM63.0223 22.2666C63.0042 24.6863 62.6235 26.8069 61.8079 27.4322C60.6388 28.3022 59.0891 27.6406 59.4063 25.8735C59.6873 24.3147 61.0376 22.7197 63.0313 20.7622L63.0223 22.2666ZM62.7051 13.2041C62.6521 14.3823 62.3817 15.5407 61.9076 16.6206C61.1373 18.1794 59.5151 18.6597 58.8354 16.4213C58.3823 14.8897 58.491 12.9141 58.7176 11.6635C59.0167 10.0503 59.7326 8.54596 61.0104 8.54596C62.261 8.54596 62.8773 9.90533 62.7051 13.2041ZM50.5523 13.186C50.5293 14.3759 50.2609 15.5483 49.7638 16.6297C48.9663 18.1703 47.3804 18.6597 46.6826 16.4213C46.1841 14.8172 46.3563 12.615 46.5648 11.4369C46.8729 9.66971 47.6523 8.42814 48.8576 8.53689C50.1082 8.66377 50.7063 10.2588 50.5523 13.186ZM106.241 14.8263C105.942 14.8263 105.797 15.1435 105.689 15.6691C105.29 17.4997 104.873 17.9166 104.329 17.9166C103.731 17.9166 103.187 17.0103 103.042 15.1978C102.934 13.766 102.952 11.1378 103.097 8.51877C103.124 7.98408 102.97 7.45845 101.529 6.93283C100.913 6.70627 100.006 6.37095 99.5623 7.45845C98.6649 9.52767 98.0315 11.7016 97.6773 13.9291C97.6773 13.9835 97.6048 13.9925 97.5866 13.8747C97.5232 13.0863 97.351 11.6453 97.3329 8.62752C97.3329 8.03846 97.206 7.54002 96.5535 7.13221C96.1276 6.86033 94.8498 6.39814 94.3785 6.95096C93.9888 7.40408 93.5266 8.64564 93.0463 10.1047L92.3757 12.0985L92.3848 7.67596C92.3848 7.22283 92.0766 7.06877 91.977 7.04158C91.4453 6.87758 90.899 6.76529 90.3457 6.70627C89.9107 6.70627 89.802 6.95095 89.802 7.31345C89.802 7.35877 89.7295 11.5275 89.7295 14.4456V14.8625C89.4848 16.2038 88.6963 18.0253 87.8354 18.0253C86.9745 18.0253 86.5666 17.2641 86.5666 13.7841C86.5666 11.7541 86.6301 10.875 86.6573 9.40689C86.6754 8.55502 86.7116 7.91158 86.7116 7.76658C86.7026 7.31345 85.9232 7.08689 85.5607 6.99627C85.1982 6.91471 84.872 6.87845 84.6273 6.89658C84.2648 6.9147 84.0201 7.14127 84.0201 7.45845V7.95689C83.629 7.33828 83.0467 6.86418 82.3616 6.60658C81.0566 6.21689 79.6973 6.56127 78.6732 7.99314C77.7893 9.25758 77.269 10.7402 77.1688 12.2797C77.0238 13.6391 77.0782 15.0075 77.3229 16.1766C77.0238 17.4816 76.4529 18.0253 75.8366 18.0253C74.9395 18.0253 74.296 16.5572 74.3685 14.0378C74.4229 12.3703 74.7491 11.2013 75.1116 9.51564C75.2657 8.79064 75.1479 8.42814 74.8307 8.06564C74.5407 7.73033 73.9245 7.55814 73.0273 7.76658C72.3929 7.91158 71.4866 8.07471 70.671 8.19252C70.671 8.19252 70.7163 8.0022 70.7616 7.64877C70.9701 5.80908 68.9673 5.95408 68.3238 6.54314C67.9432 6.89658 67.6895 7.30439 67.5807 8.05658C67.4266 9.23471 68.3963 9.78752 68.3963 9.78752C67.7736 12.1398 66.7296 14.3598 65.3151 16.3397V15.7053C65.306 12.6603 65.3423 10.2678 65.3604 9.40689C65.3785 8.55502 65.4148 7.92971 65.4148 7.77564C65.4148 7.44939 65.2154 7.32252 64.8166 7.16845C64.4541 7.02345 64.0373 6.93283 63.6023 6.89658C63.0585 6.85127 62.7232 7.14127 62.7323 7.48564V7.95689C62.3393 7.3363 61.7535 6.8619 61.0648 6.60658C59.7598 6.21689 58.4004 6.56127 57.3763 7.99314C56.5241 9.27023 56.0067 10.7412 55.872 12.2706C55.736 13.6935 55.7541 14.8988 55.9535 15.9319C55.7451 16.956 55.147 18.0163 54.4763 18.0163C53.6154 18.0163 53.117 17.2641 53.117 13.7841C53.117 11.7541 53.1804 10.875 53.2076 9.40689C53.2257 8.55502 53.262 7.91158 53.262 7.76658C53.262 7.31345 52.4735 7.08689 52.111 6.99627C51.7304 6.90564 51.3951 6.87846 51.1504 6.90564C50.8151 6.92377 50.5795 7.22283 50.5795 7.44939V7.95689C50.1865 7.3363 49.6007 6.8619 48.912 6.60658C47.607 6.21689 46.2567 6.57033 45.2235 7.99314C44.5438 8.92658 44.0001 9.95971 43.7191 12.2525C43.643 12.8658 43.6067 13.4833 43.6104 14.1013C43.3385 15.7416 42.1513 17.6356 41.1816 17.6356C40.6107 17.6356 40.067 16.5391 40.067 14.1919C40.067 11.0653 40.2663 6.61564 40.2935 6.18971L41.7616 6.16252C42.3779 6.16252 42.9307 6.17158 43.7463 6.12627C44.1541 6.10814 44.5438 4.64002 44.127 4.45877C43.9366 4.37721 42.5863 4.3047 42.0426 4.29564C41.5895 4.28658 40.3388 4.19596 40.3388 4.19596C40.3388 4.19596 40.4566 1.24158 40.4838 0.933455C40.502 0.66158 40.1666 0.534705 39.9673 0.453143C39.52 0.273103 39.0553 0.139485 38.5807 0.0543925C37.892 -0.081545 37.5838 0.0543924 37.5204 0.634393C37.4298 1.51346 37.3845 4.09627 37.3845 4.09627C36.877 4.09627 35.146 3.99658 34.6476 3.99658C34.1763 3.99658 33.6688 6.00845 34.3213 6.03564L37.2213 6.11721L37.1942 12.035V12.461C36.7138 14.935 35.0463 16.2672 35.0463 16.2672C35.4088 14.636 34.6657 13.4125 33.3516 12.3703C32.8623 11.9897 31.9016 11.2647 30.8232 10.4672C30.8232 10.4672 31.4485 9.85096 32.0013 8.61846C32.391 7.74846 32.4091 6.75158 31.4485 6.53408C29.8626 6.16252 28.5485 7.32252 28.1588 8.57314C28.0068 8.97798 27.9686 9.41677 28.0485 9.84178C28.1284 10.2668 28.3233 10.6618 28.612 10.9838L28.7479 11.156C28.3854 11.8447 27.896 12.7691 27.4791 13.4941C26.3282 15.4878 25.4491 17.0738 24.7876 17.0738C24.262 17.0738 24.271 15.4697 24.271 13.9653C24.271 12.6694 24.3616 10.721 24.4432 8.70908C24.4704 8.03845 24.1351 7.65783 23.5732 7.31345C23.1264 7.00438 22.6203 6.79145 22.087 6.68814C21.4526 6.68814 19.6401 6.77877 17.9182 11.736C17.7098 12.3613 17.2838 13.4941 17.2838 13.4941L17.3201 7.54002C17.3201 7.39502 17.2476 7.26814 17.0754 7.17752C16.5346 6.89001 15.9379 6.72306 15.3263 6.68814C15.0001 6.68814 14.837 6.84221 14.837 7.14127L14.7735 16.4756C14.7735 17.1825 14.7916 18.0072 14.8641 18.3697C14.9366 18.7322 15.0454 19.0222 15.1904 19.1944C15.3263 19.3756 15.4895 19.5025 15.7523 19.5569C16.006 19.6113 17.3654 19.7835 17.4379 19.2669C17.5285 18.6416 17.5285 17.971 18.2445 15.4606C19.3501 11.5547 20.8001 9.64252 21.4888 8.97189C21.6066 8.84502 21.7426 8.84502 21.7335 9.03533L21.5341 13.8566C21.3529 18.7231 22.241 19.6203 23.5007 19.6203C24.4704 19.6203 25.8388 18.6597 27.307 16.231L29.7538 12.1528L31.1857 13.476C32.3457 14.5635 32.7263 15.6147 32.4726 16.6025C32.2823 17.3547 31.5482 18.1431 30.2613 17.3819C29.8807 17.1553 29.7176 16.9831 29.346 16.7385C29.1376 16.6025 28.8295 16.5572 28.6391 16.7022C28.1588 17.0647 27.8779 17.536 27.7238 18.1069C27.5698 18.6597 28.1316 18.9588 28.7116 19.2125C29.2101 19.4391 30.2885 19.6385 30.9773 19.6656C33.6416 19.7563 35.7804 18.3788 37.2666 14.8263C37.5385 17.8894 38.6713 19.6294 40.6379 19.6294C41.952 19.6294 43.2751 17.9256 43.8551 16.2581C44.0182 16.9378 44.2629 17.5269 44.5801 18.0344C46.1026 20.436 49.0479 19.9103 50.5251 17.8713C50.9782 17.246 51.0507 17.0194 51.0507 17.0194C51.0949 17.7055 51.3917 18.351 51.8837 18.8313C52.3757 19.3115 53.0281 19.5926 53.7151 19.6203C54.712 19.6203 55.736 19.1491 56.461 17.5269C56.5426 17.7081 56.6423 17.8713 56.7329 18.0344C58.2554 20.436 61.2007 19.9103 62.6779 17.8713L62.8591 17.6175L62.9045 18.8863L61.5451 20.1278C59.2613 22.2122 57.5213 23.7981 57.3945 25.6469C57.2313 28.0031 59.1435 28.8731 60.5935 28.991C61.3188 29.027 62.0405 28.8688 62.6841 28.5327C63.3278 28.1965 63.87 27.6946 64.2548 27.0788C64.9617 26.0366 65.4329 23.7891 65.3966 21.5688L65.3423 18.3425C67.5131 15.8323 69.1807 12.9278 70.2541 9.78752C70.2541 9.78752 71.097 9.79658 71.9941 9.74221C72.2841 9.72408 72.3657 9.77846 72.3113 9.98689C72.2479 10.2406 71.1785 14.3731 72.1573 17.1281C72.8279 19.0131 74.3323 19.6203 75.2385 19.6203C76.2807 19.6203 77.2866 18.8319 77.8213 17.6538L78.0298 18.0344C79.5523 20.436 82.4885 19.9103 83.9748 17.8713C84.3101 17.4181 84.5004 17.0194 84.5004 17.0194C84.8266 19.0131 86.3763 19.6294 87.2645 19.6294C88.1888 19.6294 89.077 19.2488 89.7838 17.5631C89.811 18.3063 89.8563 18.9135 89.9288 19.1038C89.9741 19.2216 90.237 19.3756 90.4363 19.4391C91.2792 19.7472 92.1401 19.6022 92.4663 19.5388C92.6838 19.4935 92.856 19.3122 92.8832 18.8591C92.9466 17.6538 92.9104 15.6328 93.2729 14.1375C93.8801 11.6091 94.451 10.6303 94.7229 10.15C94.877 9.87814 95.0491 9.83283 95.0582 10.1228C95.0673 10.7028 95.0945 12.4066 95.3301 14.6994C95.5113 16.385 95.747 17.3819 95.9192 17.69C96.4357 18.5963 97.0701 18.6416 97.5776 18.6416C97.9038 18.6416 98.5926 18.551 98.5291 17.98C98.502 17.6991 98.5473 15.9681 99.1635 13.485C99.5532 11.8628 100.206 10.4038 100.441 9.86002C100.532 9.66971 100.577 9.82377 100.577 9.86002C100.523 10.9656 100.414 14.6178 100.867 16.6206C101.484 19.3213 103.269 19.6294 103.894 19.6294C105.226 19.6294 106.314 18.6144 106.676 15.9591C106.767 15.3247 106.631 14.8263 106.241 14.8263Z" fill="#F5F5F5"/>
</g>
</g>
<defs>
<filter id="filter0_d_1028_50" x="0.298828" y="0.00524902" width="110.404" height="36.9908" filterUnits="userSpaceOnUse" color-interpolation-filters="sRGB">
<feFlood flood-opacity="0" result="BackgroundImageFix"/>
<feColorMatrix in="SourceAlpha" type="matrix" values="0 0 0 0 0 0 0 0 0 0 0 0 0 0 0 0 0 0 127 0" result="hardAlpha"/>
<feOffset dy="4"/>
<feGaussianBlur stdDeviation="2"/>
<feComposite in2="hardAlpha" operator="out"/>
<feColorMatrix type="matrix" values="0 0 0 0 0 0 0 0 0 0 0 0 0 0 0 0 0 0 0.25 0"/>
<feBlend mode="normal" in2="BackgroundImageFix" result="effect1_dropShadow_1028_50"/>
<feBlend mode="normal" in="SourceGraphic" in2="effect1_dropShadow_1028_50" result="shape"/>
</filter>
</defs>
</svg>
