<svg width="103" height="29" viewBox="0 0 103 29" fill="none" xmlns="http://www.w3.org/2000/svg">
<mask id="mask0_1040_364" style="mask-type:luminance" maskUnits="userSpaceOnUse" x="0" y="0" width="103" height="29">
<path d="M103 0H0V29H103V0Z" fill="white"/>
</mask>
<g mask="url(#mask0_1040_364)">
<g filter="url(#filter0_d_1040_364)">
<path fill-rule="evenodd" clip-rule="evenodd" d="M5.57165 0.0998271C3.46915 0.97889 1.16727 3.45295 0.442271 6.56139C-0.482099 10.4945 3.35134 12.1529 3.66852 11.6092C4.03102 10.9748 2.97977 10.7573 2.76227 8.7092C2.4904 6.08107 3.71384 3.1267 5.25446 1.83983C5.54446 1.59514 5.52634 1.93045 5.52634 2.5467L5.47196 15.6511C5.47196 18.4604 5.35415 19.3395 5.14571 20.2186C4.93727 21.1067 4.60196 21.7048 4.84665 21.9404C5.13665 22.1942 6.3691 21.5779 7.076 20.5811C7.8837 19.3491 8.3035 17.9034 8.2813 16.4304C8.3448 14.5636 8.3357 11.6001 8.3448 9.91451C8.3448 8.37389 8.372 3.83358 8.3176 1.10576C8.2995 0.43514 6.4416 -0.262673 5.57165 0.10889V0.0998271ZM80.002 13.2223C79.973 14.398 79.7015 15.555 79.2045 16.6207C78.4341 18.1795 76.821 18.6598 76.1323 16.4214C75.7698 15.207 75.7426 13.1679 76.0145 11.4642C76.2863 9.74232 77.0476 8.42826 78.3073 8.54608C79.5579 8.66389 80.1379 10.2679 80.002 13.2223ZM59.0223 22.2667C59.0042 24.6864 58.6235 26.807 57.8079 27.4323C56.6388 28.3023 55.0891 27.6407 55.4063 25.8736C55.6873 24.3148 57.0376 22.7198 59.0313 20.7623L59.0223 22.2667ZM58.7051 13.2042C58.6521 14.3824 58.3817 15.5408 57.9076 16.6207C57.1373 18.1795 55.5151 18.6598 54.8354 16.4214C54.3823 14.8898 54.491 12.9142 54.7176 11.6636C55.0167 10.0504 55.7326 8.54608 57.0104 8.54608C58.261 8.54608 58.8773 9.90545 58.7051 13.2042ZM46.5523 13.1861C46.5293 14.376 46.2609 15.5484 45.7638 16.6298C44.9663 18.1704 43.3804 18.6598 42.6826 16.4214C42.1841 14.8173 42.3563 12.6151 42.5648 11.437C42.8729 9.66983 43.6523 8.42826 44.8576 8.53701C46.1082 8.66389 46.7063 10.2589 46.5523 13.1861ZM102.241 14.8264C101.942 14.8264 101.797 15.1436 101.689 15.6692C101.29 17.4998 100.873 17.9167 100.329 17.9167C99.731 17.9167 99.187 17.0104 99.042 15.1979C98.934 13.7661 98.952 11.1379 99.097 8.51889C99.124 7.9842 98.97 7.45857 97.529 6.93295C96.913 6.70639 96.006 6.37107 95.5623 7.45857C94.6649 9.52779 94.0315 11.7017 93.6773 13.9292C93.6773 13.9836 93.6048 13.9926 93.5866 13.8748C93.5232 13.0864 93.351 11.6454 93.3329 8.62764C93.3329 8.03858 93.206 7.54014 92.5535 7.13233C92.1276 6.86045 90.8498 6.39826 90.3785 6.95108C89.9888 7.4042 89.5266 8.64576 89.0463 10.1048L88.3757 12.0986L88.3848 7.67608C88.3848 7.22295 88.0766 7.06889 87.977 7.0417C87.4453 6.8777 86.899 6.76541 86.3457 6.70639C85.9107 6.70639 85.802 6.95107 85.802 7.31357C85.802 7.35889 85.7295 11.5276 85.7295 14.4457V14.8626C85.4848 16.2039 84.6963 18.0254 83.8354 18.0254C82.9745 18.0254 82.5666 17.2642 82.5666 13.7842C82.5666 11.7542 82.6301 10.8751 82.6573 9.40701C82.6754 8.55514 82.7116 7.9117 82.7116 7.7667C82.7026 7.31357 81.9232 7.08701 81.5607 6.99639C81.1982 6.91483 80.872 6.87857 80.6273 6.8967C80.2648 6.91482 80.0201 7.14139 80.0201 7.45857V7.95701C79.629 7.3384 79.0467 6.8643 78.3616 6.6067C77.0566 6.21701 75.6973 6.56139 74.6732 7.99326C73.7893 9.2577 73.269 10.7403 73.1688 12.2798C73.0238 13.6392 73.0782 15.0076 73.3229 16.1767C73.0238 17.4817 72.4529 18.0254 71.8366 18.0254C70.9395 18.0254 70.296 16.5573 70.3685 14.0379C70.4229 12.3704 70.7491 11.2014 71.1116 9.51576C71.2657 8.79076 71.1479 8.42826 70.8307 8.06576C70.5407 7.73045 69.9245 7.55826 69.0273 7.7667C68.3929 7.9117 67.4866 8.07483 66.671 8.19264C66.671 8.19264 66.7163 8.00232 66.7616 7.64889C66.9701 5.8092 64.9673 5.9542 64.3238 6.54326C63.9432 6.8967 63.6895 7.30451 63.5807 8.0567C63.4266 9.23483 64.3963 9.78764 64.3963 9.78764C63.7736 12.1399 62.7296 14.3599 61.3151 16.3398V15.7054C61.306 12.6604 61.3423 10.2679 61.3604 9.40701C61.3785 8.55514 61.4148 7.92983 61.4148 7.77576C61.4148 7.44951 61.2154 7.32264 60.8166 7.16857C60.4541 7.02357 60.0373 6.93295 59.6023 6.8967C59.0585 6.85139 58.7232 7.14139 58.7323 7.48576V7.95701C58.3393 7.33642 57.7535 6.86202 57.0648 6.6067C55.7598 6.21701 54.4004 6.56139 53.3763 7.99326C52.5241 9.27035 52.0067 10.7413 51.872 12.2707C51.736 13.6936 51.7541 14.8989 51.9535 15.932C51.7451 16.9561 51.147 18.0164 50.4763 18.0164C49.6154 18.0164 49.117 17.2642 49.117 13.7842C49.117 11.7542 49.1804 10.8751 49.2076 9.40701C49.2257 8.55514 49.262 7.9117 49.262 7.7667C49.262 7.31357 48.4735 7.08701 48.111 6.99639C47.7304 6.90576 47.3951 6.87858 47.1504 6.90576C46.8151 6.92389 46.5795 7.22295 46.5795 7.44951V7.95701C46.1865 7.33642 45.6007 6.86202 44.912 6.6067C43.607 6.21701 42.2567 6.57045 41.2235 7.99326C40.5438 8.9267 40.0001 9.95983 39.7191 12.2526C39.643 12.8659 39.6067 13.4834 39.6104 14.1014C39.3385 15.7417 38.1513 17.6357 37.1816 17.6357C36.6107 17.6357 36.067 16.5392 36.067 14.192C36.067 11.0654 36.2663 6.61576 36.2935 6.18983L37.7616 6.16264C38.3779 6.16264 38.9307 6.1717 39.7463 6.12639C40.1541 6.10826 40.5438 4.64014 40.127 4.45889C39.9366 4.37733 38.5863 4.30482 38.0426 4.29576C37.5895 4.2867 36.3388 4.19608 36.3388 4.19608C36.3388 4.19608 36.4566 1.2417 36.4838 0.933577C36.502 0.661702 36.1666 0.534827 35.9673 0.453265C35.52 0.273225 35.0553 0.139607 34.5807 0.0545144C33.892 -0.0814231 33.5838 0.0545143 33.5204 0.634515C33.4298 1.51358 33.3845 4.09639 33.3845 4.09639C32.877 4.09639 31.146 3.9967 30.6476 3.9967C30.1763 3.9967 29.6688 6.00857 30.3213 6.03576L33.2213 6.11733L33.1942 12.0351V12.4611C32.7138 14.9351 31.0463 16.2673 31.0463 16.2673C31.4088 14.6361 30.6657 13.4126 29.3516 12.3704C28.8623 11.9898 27.9016 11.2648 26.8232 10.4673C26.8232 10.4673 27.4485 9.85108 28.0013 8.61858C28.391 7.74858 28.4091 6.7517 27.4485 6.5342C25.8626 6.16264 24.5485 7.32264 24.1588 8.57326C24.0068 8.9781 23.9686 9.41689 24.0485 9.8419C24.1284 10.2669 24.3233 10.6619 24.612 10.9839L24.7479 11.1561C24.3854 11.8448 23.896 12.7692 23.4791 13.4942C22.3282 15.4879 21.4491 17.0739 20.7876 17.0739C20.262 17.0739 20.271 15.4698 20.271 13.9654C20.271 12.6695 20.3616 10.7211 20.4432 8.7092C20.4704 8.03857 20.1351 7.65795 19.5732 7.31357C19.1264 7.0045 18.6203 6.79157 18.087 6.68826C17.4526 6.68826 15.6401 6.77889 13.9182 11.7361C13.7098 12.3614 13.2838 13.4942 13.2838 13.4942L13.3201 7.54014C13.3201 7.39514 13.2476 7.26826 13.0754 7.17764C12.5346 6.89013 11.9379 6.72318 11.3263 6.68826C11.0001 6.68826 10.837 6.84233 10.837 7.14139L10.7735 16.4757C10.7735 17.1826 10.7916 18.0073 10.8641 18.3698C10.9366 18.7323 11.0454 19.0223 11.1904 19.1945C11.3263 19.3757 11.4895 19.5026 11.7523 19.557C12.006 19.6114 13.3654 19.7836 13.4379 19.267C13.5285 18.6417 13.5285 17.9711 14.2445 15.4607C15.3501 11.5548 16.8001 9.64264 17.4888 8.97201C17.6066 8.84514 17.7426 8.84514 17.7335 9.03545L17.5341 13.8567C17.3529 18.7232 18.241 19.6204 19.5007 19.6204C20.4704 19.6204 21.8388 18.6598 23.307 16.2311L25.7538 12.1529L27.1857 13.4761C28.3457 14.5636 28.7263 15.6148 28.4726 16.6026C28.2823 17.3548 27.5482 18.1432 26.2613 17.382C25.8807 17.1554 25.7176 16.9832 25.346 16.7386C25.1376 16.6026 24.8295 16.5573 24.6391 16.7023C24.1588 17.0648 23.8779 17.5361 23.7238 18.107C23.5698 18.6598 24.1316 18.9589 24.7116 19.2126C25.2101 19.4392 26.2885 19.6386 26.9773 19.6657C29.6416 19.7564 31.7804 18.3789 33.2666 14.8264C33.5385 17.8895 34.6713 19.6295 36.6379 19.6295C37.952 19.6295 39.2751 17.9257 39.8551 16.2582C40.0182 16.9379 40.2629 17.527 40.5801 18.0345C42.1026 20.4361 45.0479 19.9104 46.5251 17.8714C46.9782 17.2461 47.0507 17.0195 47.0507 17.0195C47.0949 17.7056 47.3917 18.3511 47.8837 18.8314C48.3757 19.3116 49.0281 19.5927 49.7151 19.6204C50.712 19.6204 51.736 19.1492 52.461 17.527C52.5426 17.7082 52.6423 17.8714 52.7329 18.0345C54.2554 20.4361 57.2007 19.9104 58.6779 17.8714L58.8591 17.6176L58.9045 18.8864L57.5451 20.1279C55.2613 22.2123 53.5213 23.7982 53.3945 25.647C53.2313 28.0032 55.1435 28.8732 56.5935 28.9911C57.3188 29.0271 58.0405 28.8689 58.6841 28.5328C59.3278 28.1966 59.87 27.6947 60.2548 27.0789C60.9617 26.0367 61.4329 23.7892 61.3966 21.5689L61.3423 18.3426C63.5131 15.8324 65.1807 12.9279 66.2541 9.78764C66.2541 9.78764 67.097 9.7967 67.9941 9.74233C68.2841 9.7242 68.3657 9.77858 68.3113 9.98701C68.2479 10.2407 67.1785 14.3732 68.1573 17.1282C68.8279 19.0132 70.3323 19.6204 71.2385 19.6204C72.2807 19.6204 73.2866 18.832 73.8213 17.6539L74.0298 18.0345C75.5523 20.4361 78.4885 19.9104 79.9748 17.8714C80.3101 17.4182 80.5004 17.0195 80.5004 17.0195C80.8266 19.0132 82.3763 19.6295 83.2645 19.6295C84.1888 19.6295 85.077 19.2489 85.7838 17.5632C85.811 18.3064 85.8563 18.9136 85.9288 19.1039C85.9741 19.2217 86.237 19.3757 86.4363 19.4392C87.2792 19.7473 88.1401 19.6023 88.4663 19.5389C88.6838 19.4936 88.856 19.3123 88.8832 18.8592C88.9466 17.6539 88.9104 15.6329 89.2729 14.1376C89.8801 11.6092 90.451 10.6304 90.7229 10.1501C90.877 9.87826 91.0491 9.83295 91.0582 10.1229C91.0673 10.7029 91.0945 12.4067 91.3301 14.6995C91.5113 16.3851 91.747 17.382 91.9192 17.6901C92.4357 18.5964 93.0701 18.6417 93.5776 18.6417C93.9038 18.6417 94.5926 18.5511 94.5291 17.9801C94.502 17.6992 94.5473 15.9682 95.1635 13.4851C95.5532 11.8629 96.206 10.4039 96.441 9.86014C96.532 9.66983 96.577 9.82389 96.577 9.86014C96.523 10.9657 96.414 14.6179 96.867 16.6207C97.484 19.3214 99.269 19.6295 99.894 19.6295C101.226 19.6295 102.314 18.6145 102.676 15.9592C102.767 15.3248 102.631 14.8264 102.241 14.8264Z" fill="#F5F5F5"/>
</g>
</g>
<defs>
<filter id="filter0_d_1040_364" x="-3.70117" y="0.00537109" width="110.404" height="36.9907" filterUnits="userSpaceOnUse" color-interpolation-filters="sRGB">
<feFlood flood-opacity="0" result="BackgroundImageFix"/>
<feColorMatrix in="SourceAlpha" type="matrix" values="0 0 0 0 0 0 0 0 0 0 0 0 0 0 0 0 0 0 127 0" result="hardAlpha"/>
<feOffset dy="4"/>
<feGaussianBlur stdDeviation="2"/>
<feComposite in2="hardAlpha" operator="out"/>
<feColorMatrix type="matrix" values="0 0 0 0 0 0 0 0 0 0 0 0 0 0 0 0 0 0 0.25 0"/>
<feBlend mode="normal" in2="BackgroundImageFix" result="effect1_dropShadow_1040_364"/>
<feBlend mode="normal" in="SourceGraphic" in2="effect1_dropShadow_1040_364" result="shape"/>
</filter>
</defs>
</svg>
