<svg width="24" height="24" viewBox="0 0 24 24" fill="none" xmlns="http://www.w3.org/2000/svg">
<path d="M12.0037 2.00098C13.3037 1.95924 14.5989 2.17924 15.8122 2.64792C17.0255 3.11661 18.1322 3.8244 19.0666 4.72925C20.001 5.63411 20.744 6.71755 21.2513 7.91521C21.7587 9.11286 22.0202 10.4003 22.0202 11.701C22.0202 13.0017 21.7587 14.2891 21.2513 15.4868C20.744 16.6844 20.001 17.7679 19.0666 18.6727C18.1322 19.5776 17.0255 20.2854 15.8122 20.754C14.5989 21.2227 13.3037 21.4427 12.0037 21.401C11.0258 21.4037 10.052 21.2745 9.10869 21.017C8.93171 20.9687 8.74347 20.9828 8.57569 21.057L6.59169 21.933C6.47172 21.9857 6.34065 22.0082 6.20996 21.9985C6.07927 21.9888 5.95296 21.9472 5.84211 21.8773C5.73125 21.8074 5.63924 21.7114 5.57413 21.5977C5.50903 21.4839 5.47282 21.356 5.46869 21.225L5.41469 19.445C5.41018 19.3369 5.38395 19.2308 5.33757 19.133C5.29118 19.0353 5.22558 18.9478 5.14469 18.876C4.14086 17.9723 3.34149 16.8649 2.79999 15.6275C2.25849 14.3902 1.98735 13.0515 2.00469 11.701C1.99709 10.3995 2.25283 9.10999 2.75652 7.90993C3.26021 6.70987 4.00145 5.6241 4.93563 4.71794C5.86982 3.81178 6.97766 3.10395 8.1925 2.63703C9.40734 2.17011 10.7031 1.95376 12.0037 2.00098Z" stroke="#F5F5F5" stroke-width="1.739" stroke-miterlimit="10"/>
<path fill-rule="evenodd" clip-rule="evenodd" d="M17.7901 10.132C17.8736 10.0008 17.9081 9.8444 17.8875 9.6903C17.8668 9.5362 17.7923 9.39437 17.6772 9.28989C17.562 9.1854 17.4137 9.12499 17.2583 9.11933C17.1029 9.11368 16.9505 9.16314 16.8281 9.25897L14.2721 11.309C14.1631 11.3915 14.0302 11.4364 13.8934 11.4367C13.7567 11.4371 13.6235 11.3929 13.5141 11.311L11.0601 9.46998C10.886 9.33963 10.6868 9.24673 10.4751 9.19712C10.2633 9.14752 10.0436 9.14227 9.82969 9.18172C9.61581 9.22117 9.41242 9.30446 9.2323 9.42635C9.05218 9.54824 8.89924 9.7061 8.7831 9.88998L6.2161 13.87C6.13181 14.001 6.09667 14.1576 6.11691 14.3121C6.13716 14.4666 6.21147 14.6089 6.32666 14.7138C6.44185 14.8187 6.59048 14.8793 6.74617 14.8851C6.90185 14.8908 7.05453 14.8411 7.1771 14.745L9.7331 12.696C9.8422 12.6132 9.97531 12.5682 10.1123 12.5678C10.2492 12.5675 10.3826 12.6118 10.4921 12.694L12.9441 14.534C13.1182 14.6645 13.3175 14.7575 13.5293 14.8072C13.7412 14.8569 13.9611 14.8622 14.1751 14.8228C14.3891 14.7833 14.5926 14.7 14.7728 14.578C14.953 14.456 15.106 14.298 15.2221 14.114L17.7901 10.132Z" fill="#F5F5F5"/>
</svg>
