<svg width="12" height="12" viewBox="0 0 12 12" fill="none" xmlns="http://www.w3.org/2000/svg">
<g clip-path="url(#clip0_1025_52)">
<path fill-rule="evenodd" clip-rule="evenodd" d="M0.375391 3.325C0.175391 3.325 0.000390634 3.5 0.000390634 3.7V8.3C0.000390634 8.5 0.175391 8.675 0.375391 8.675H2.55039L5.77539 11.9C6.00039 12.125 6.40039 11.975 6.40039 11.65V9.2C6.40039 9.1 6.35039 9 6.30039 8.925L0.800391 3.425C0.725391 3.35 0.625391 3.325 0.525391 3.325H0.375391ZM12.0754 11.175L10.7004 9.8C11.2254 9.15 12.0004 7.85 12.0004 6C12.0004 3.15 10.2004 1.65 10.2004 1.65C10.0504 1.5 9.80039 1.5 9.65039 1.65L9.30039 2C9.15039 2.15 9.15039 2.4 9.30039 2.55C9.30039 2.55 10.7254 3.8 10.7254 6C10.7254 7.35 10.2004 8.325 9.77539 8.9L8.87539 8C9.15039 7.575 9.45039 6.9 9.45039 6C9.45039 4.3 8.42539 3.425 8.42539 3.425C8.27539 3.275 8.02539 3.275 7.87539 3.425L7.52539 3.775C7.37539 3.925 7.37539 4.175 7.52539 4.325C7.52539 4.325 8.17539 4.825 8.17539 6C8.17539 6.45 8.07539 6.8 7.95039 7.075L6.37539 5.5V0.35C6.37539 0.025 5.97539 -0.125 5.75039 0.1L3.37539 2.5L0.825391 -0.075C0.675391 -0.225 0.450391 -0.225 0.300391 -0.075L-0.0496094 0.275C-0.199609 0.425 -0.199609 0.65 -0.0496094 0.8L1.00039 1.9L7.70039 8.6L11.1754 12.075C11.3254 12.225 11.5504 12.225 11.7004 12.075L12.0504 11.725C12.2254 11.575 12.2254 11.325 12.0754 11.175Z" fill="black"/>
</g>
<defs>
<clipPath id="clip0_1025_52">
<rect width="12" height="12" fill="white"/>
</clipPath>
</defs>
</svg>
