<svg width="24" height="24" viewBox="0 0 24 24" fill="none" xmlns="http://www.w3.org/2000/svg">
<path d="M2.04883 7.00195H21.9498" stroke="#F5F5F5" stroke-width="2" stroke-linejoin="round"/>
<path d="M13.504 2.001L16.362 7.002M7.207 2.11L10.002 7.002M2 12.001V15.45C2 18.299 2.698 19.456 3.606 20.395C4.546 21.303 5.704 22.002 8.552 22.002H15.448C18.296 22.002 19.454 21.303 20.394 20.395C21.302 19.456 22 18.299 22 15.45V8.552C22 5.704 21.302 4.546 20.394 3.607C19.454 2.699 18.296 2 15.448 2H8.552C5.704 2 4.546 2.699 3.606 3.607C2.698 4.546 2 5.704 2 8.552V12.001Z" stroke="#F5F5F5" stroke-width="2" stroke-linecap="round" stroke-linejoin="round"/>
<path fill-rule="evenodd" clip-rule="evenodd" d="M9.76259 17.664C9.62447 17.5843 9.50978 17.4696 9.43008 17.3314C9.35038 17.1933 9.30848 17.0365 9.30859 16.877V11.63C9.30841 11.4703 9.3503 11.3134 9.43005 11.175C9.5098 11.0367 9.6246 10.9218 9.76288 10.8419C9.90116 10.762 10.0581 10.7199 10.2178 10.72C10.3775 10.72 10.5343 10.7621 10.6726 10.842L15.2176 13.466C15.3559 13.5458 15.4708 13.6606 15.5507 13.7988C15.6305 13.937 15.6726 14.0939 15.6726 14.2535C15.6726 14.4132 15.6305 14.57 15.5507 14.7083C15.4708 14.8465 15.3559 14.9613 15.2176 15.041L10.6726 17.665C10.5343 17.7449 10.3773 17.787 10.2176 17.787C10.0579 17.787 9.90093 17.7449 9.76259 17.665V17.664Z" fill="#F5F5F5"/>
</svg>
