<svg width="16" height="16" viewBox="0 0 16 16" fill="none" xmlns="http://www.w3.org/2000/svg">
<path d="M13.9991 11.6679C13.9115 11.668 13.8248 11.6508 13.7439 11.6173C13.663 11.5838 13.5896 11.5346 13.5277 11.4726L7.99908 5.94194L2.47041 11.4726C2.40891 11.5363 2.33535 11.5871 2.25401 11.622C2.17268 11.657 2.0852 11.6753 1.99668 11.6761C1.90816 11.6769 1.82037 11.66 1.73844 11.6265C1.65651 11.593 1.58208 11.5435 1.51948 11.4809C1.45689 11.4183 1.40738 11.3438 1.37386 11.2619C1.34034 11.18 1.32347 11.0922 1.32424 11.0037C1.32501 10.9152 1.3434 10.8277 1.37834 10.7463C1.41328 10.665 1.46407 10.5914 1.52774 10.5299L7.52774 4.52728C7.65519 4.40698 7.82382 4.33997 7.99908 4.33997C8.17434 4.33997 8.34296 4.40698 8.47041 4.52728L14.4704 10.5299C14.5636 10.6232 14.6271 10.742 14.6528 10.8713C14.6785 11.0006 14.6653 11.1346 14.6149 11.2564C14.5644 11.3782 14.479 11.4823 14.3694 11.5555C14.2598 11.6288 14.1309 11.6679 13.9991 11.6679Z" fill="black"/>
</svg>
