<svg width="12" height="12" viewBox="0 0 12 12" fill="none" xmlns="http://www.w3.org/2000/svg">
<g clip-path="url(#clip0_1025_111)">
<path d="M10.666 11.5H1.33203C1.19942 11.5 1.07225 11.4473 0.978478 11.3536C0.88471 11.2598 0.832031 11.1326 0.832031 11V10.323C0.832958 9.49159 1.16365 8.69447 1.75157 8.10656C2.33948 7.51865 3.1366 7.18795 3.96803 7.18702H8.03003C8.86129 7.18808 9.6582 7.51877 10.246 8.10656C10.8338 8.69435 11.1645 9.49126 11.1655 10.3225V11C11.1655 11.1326 11.1129 11.2598 11.0191 11.3536C10.9253 11.4473 10.7986 11.5 10.666 11.5ZM5.99903 6.63452C5.40569 6.63452 4.82567 6.45858 4.33232 6.12893C3.83897 5.79929 3.45446 5.33075 3.22739 4.78257C3.00033 4.23439 2.94092 3.6312 3.05668 3.04925C3.17243 2.46731 3.45815 1.93276 3.87771 1.5132C4.29727 1.09364 4.83182 0.807923 5.41376 0.692167C5.9957 0.576411 6.5989 0.635821 7.14708 0.862884C7.69526 1.08995 8.1638 1.47446 8.49344 1.96781C8.82308 2.46116 8.99903 3.04118 8.99903 3.63452C8.9981 4.42989 8.68174 5.19241 8.11933 5.75482C7.55692 6.31723 6.7944 6.6336 5.99903 6.63452Z" fill="#F5F5F5"/>
</g>
<defs>
<clipPath id="clip0_1025_111">
<rect width="12" height="12" fill="white"/>
</clipPath>
</defs>
</svg>
